<svg width="60" height="60" viewBox="0 0 60 60" fill="none" xmlns="http://www.w3.org/2000/svg">
<g clip-path="url(#clip0_24_847)">
<path d="M52.6754 7.16968H7.33706C3.28988 7.16968 0 10.4596 0 14.5067V45.4937C0 49.5409 3.28988 52.8307 7.33706 52.8307H52.6629C56.7101 52.8307 60 49.5409 60 45.4937V14.5191C60.0124 10.472 56.7225 7.16968 52.6754 7.16968ZM56.6605 45.4937C56.6605 47.6911 54.8727 49.4788 52.6754 49.4788H7.33706C5.13966 49.4788 3.35196 47.6911 3.35196 45.4937V14.5191C3.35196 12.3218 5.13966 10.534 7.33706 10.534H52.6629C54.8603 10.534 56.648 12.3218 56.648 14.5191V45.4937H56.6605Z" fill="white"/>
<path d="M37.8398 29.6153L52.5139 16.4558C53.1967 15.8351 53.2588 14.7798 52.638 14.0846C52.0173 13.4018 50.9621 13.3397 50.2668 13.9604L30.031 32.1231L26.0831 28.5973C26.0707 28.5849 26.0583 28.5725 26.0583 28.5601C25.9714 28.4732 25.8845 28.3987 25.7851 28.3242L9.72059 13.948C9.02537 13.3273 7.97013 13.3894 7.3494 14.0846C6.72866 14.7798 6.79074 15.8351 7.48596 16.4558L22.3339 29.727L7.54803 43.5694C6.87764 44.2025 6.8404 45.2578 7.47354 45.9406C7.80874 46.2882 8.25567 46.4744 8.70259 46.4744C9.11228 46.4744 9.52196 46.3254 9.84474 46.0275L24.854 31.9865L28.9261 35.624C29.2488 35.9095 29.6461 36.0461 30.0434 36.0461C30.4406 36.0461 30.8503 35.8971 31.1607 35.6116L35.3444 31.8624L50.2668 46.0399C50.5896 46.3503 51.0117 46.4992 51.4214 46.4992C51.8683 46.4992 52.3028 46.3254 52.638 45.9778C53.2712 45.3074 53.2463 44.2398 52.576 43.6066L37.8398 29.6153Z" fill="white"/>
</g>
<defs>
<clipPath id="clip0_24_847">
<rect width="60" height="60" fill="white"/>
</clipPath>
</defs>
</svg>
